<svg width="100" height="44" viewBox="0 0 100 44" fill="none" xmlns="http://www.w3.org/2000/svg">
<g clip-path="url(#clip0_1_790)">
<path d="M0 0V7.23533H13.0907V31.3764H21.4247V7.23533H30.6969L37.9505 0H0Z" fill="#293240"/>
<path d="M91.666 0V23.0017L71.9278 0L62.1959 9.71566V31.3764H70.8289V11.978L88.5299 31.3764H100V0H91.666Z" fill="#293240"/>
<path d="M44.3917 7.22299H61.2515L68.4928 0H41.3299L34.0144 7.29703V31.3764H42.3072V19.7707H50.5608L57.4082 12.9426H42.3072V9.32079L44.3917 7.22299Z" fill="#293240"/>
<path d="M3.57526 38.8812H1.15876V42.9945H0V37.9248H3.58351L3.57526 38.8812Z" fill="#293240"/>
<path d="M9.05774 38.1491C9.28746 38.2595 9.49145 38.4166 9.65654 38.6105C9.82163 38.8043 9.94416 39.0305 10.0162 39.2744C10.0883 39.5184 10.1083 39.7747 10.075 40.0269C10.0416 40.279 9.95571 40.5214 9.82269 40.7384C9.63736 41.0225 9.3709 41.2445 9.05774 41.376C8.68747 41.5317 8.28833 41.6074 7.88661 41.5981H6.85568V42.9966H5.68042V37.9249H7.87836C8.283 37.9151 8.68507 37.9915 9.05774 38.1491ZM8.62681 40.4114C8.71934 40.3317 8.79221 40.2318 8.83976 40.1194C8.88732 40.0071 8.90829 39.8853 8.90104 39.7636C8.9088 39.6406 8.88809 39.5174 8.84054 39.4037C8.793 39.2899 8.71987 39.1886 8.62681 39.1075C8.3929 38.9402 8.1078 38.8594 7.82063 38.8792H6.86393V40.6397H7.82063C8.10755 40.6601 8.39263 40.5801 8.62681 40.4135V40.4114Z" fill="#293240"/>
<path d="M16.8186 37.9248L14.6577 41.9374C14.4816 42.2857 14.2242 42.5869 13.9072 42.8155C13.6267 43.0089 13.2936 43.1123 12.9526 43.1117C12.6691 43.1078 12.389 43.0491 12.1278 42.9389L12.4103 42.0464C12.5738 42.1027 12.7447 42.1346 12.9175 42.141C13.0554 42.1432 13.1911 42.1068 13.3093 42.0361C13.439 41.9514 13.5482 41.839 13.6289 41.707L13.6722 41.6494L11.6701 37.9248H12.9258L14.2742 40.6499L15.668 37.9248H16.8186Z" fill="#293240"/>
<path d="M23.5279 37.9248V42.9965H22.3588V38.8832H20.0681V42.9965H18.9011V37.9248H23.5279Z" fill="#293240"/>
<path d="M30.7629 37.9248V42.9965H29.5877V38.8832H27.3031V42.9965H26.1361V37.9248H30.7629Z" fill="#293240"/>
<path d="M36.8639 41.9167H34.5072L34.0578 43.0026H32.8536L35.1217 37.9309H36.2804L38.5485 43.0026H37.3114L36.8639 41.9167ZM36.4949 41.0241L35.6887 39.0826L34.8846 41.0241H36.4949Z" fill="#293240"/>
<path d="M45.8516 40.9543H45.0392V42.9965H43.8701V37.9248H45.0392V39.9815H45.8763L47.2103 37.9248H48.4474L46.7876 40.3722L48.499 42.9965H47.165L45.8516 40.9543Z" fill="#293240"/>
<path d="M51.4206 42.7393C51.0091 42.524 50.6652 42.1994 50.4268 41.8015C50.2438 41.5008 50.1243 41.166 50.0753 40.8177C50.0264 40.4693 50.0491 40.1147 50.1421 39.7754C50.2351 39.4361 50.3964 39.1193 50.6162 38.8442C50.836 38.5692 51.1097 38.3417 51.4206 38.1756C51.8618 37.9525 52.3496 37.8362 52.8443 37.8362C53.339 37.8362 53.8268 37.9525 54.268 38.1756C54.6775 38.3947 55.0207 38.7192 55.2618 39.1155C55.4982 39.5238 55.6226 39.987 55.6226 40.4585C55.6226 40.93 55.4982 41.3932 55.2618 41.8015C55.0212 42.1976 54.6779 42.5217 54.268 42.7393C53.8272 42.9638 53.3392 43.0808 52.8443 43.0808C52.3493 43.0808 51.8615 42.9638 51.4206 42.7393ZM53.6577 41.8755C53.8963 41.7387 54.093 41.5396 54.2268 41.2997C54.3635 41.0403 54.4349 40.7516 54.4349 40.4585C54.4349 40.1654 54.3635 39.8767 54.2268 39.6173C54.0936 39.377 53.8968 39.1777 53.6577 39.0415C53.4083 38.9065 53.1291 38.8357 52.8453 38.8357C52.5616 38.8357 52.2823 38.9065 52.033 39.0415C51.7939 39.1777 51.597 39.377 51.4639 39.6173C51.3284 39.8771 51.2576 40.1657 51.2576 40.4585C51.2576 40.7514 51.3284 41.0399 51.4639 41.2997C51.5976 41.5396 51.7944 41.7387 52.033 41.8755C52.2823 42.0105 52.5616 42.0813 52.8453 42.0813C53.1291 42.0813 53.4083 42.0105 53.6577 41.8755Z" fill="#293240"/>
<path d="M62.5258 42.9965V39.9609L61.0309 42.4597H60.5093L59.0144 40.0185V42.9965H57.9134V37.9248H58.8845L60.7835 41.0756L62.6557 37.9248H63.6268V42.9965H62.5258Z" fill="#293240"/>
<path d="M70.8639 37.9248V42.9965H69.6969V38.8832H67.4041V42.9965H66.2371V37.9248H70.8639Z" fill="#293240"/>
<path d="M76.965 41.9167H74.6083L74.1588 43.0026H72.9547L75.2227 37.9309H76.3835L78.6516 43.0026H77.4144L76.965 41.9167ZM76.5979 41.018L75.7918 39.0765L74.9876 41.018H76.5979Z" fill="#293240"/>
<path d="M85.3897 37.9248V42.9965H84.2268V40.9172H81.9093V42.9965H80.734V37.9248H81.9093V39.9239H84.2268V37.9248H85.3897Z" fill="#293240"/>
<path d="M88.0062 37.9248H89.1752V41.2278L91.5979 37.9248H92.701V42.9965H91.5402V39.7059L89.1175 42.9965H88.0082L88.0062 37.9248Z" fill="#293240"/>
<path d="M95.3073 37.9248H96.4763V41.2278L98.899 37.9248H100V42.9965H98.8392V39.7058L96.4165 42.9965H95.3073V37.9248ZM96.2433 36.4851H97.0475C97.0578 36.8389 97.2536 37.0137 97.6495 37.0137C97.8084 37.0252 97.9661 36.9783 98.0928 36.882C98.1458 36.8308 98.1874 36.7689 98.2148 36.7005C98.2421 36.6321 98.2547 36.5587 98.2516 36.4851H99.0578C99.0653 36.6403 99.0371 36.7952 98.9753 36.9378C98.9134 37.0804 98.8196 37.207 98.7011 37.3078C98.3932 37.5189 98.022 37.6184 97.6495 37.5895C96.7217 37.595 96.253 37.2282 96.2433 36.4892V36.4851Z" fill="#293240"/>
</g>
<defs>
<clipPath id="clip0_1_790">
<rect width="100" height="43.1138" fill="white"/>
</clipPath>
</defs>
</svg>
