<svg width="24" height="24" viewBox="0 0 24 24" fill="none" xmlns="http://www.w3.org/2000/svg">
<path d="M16.0367 23.0011H2.72005C2.51723 22.9376 2.30149 22.8994 2.11373 22.8058C1.34223 22.4216 1.00167 21.7739 1.00167 20.9271C1.00167 16.7464 1.00167 12.5658 1.00167 8.38516C1.00167 6.59523 0.997908 4.80583 1.00167 3.0159C1.00544 1.8522 1.8259 1.00807 2.9783 1.00592C6.63671 0.998027 10.2941 0.998027 13.9503 1.00592C14.4458 1.00592 14.9031 1.14472 15.2657 1.49389C15.8742 2.07923 16.4644 2.68341 17.0702 3.26929C17.5383 3.72391 17.761 4.26514 17.7567 4.91989C17.747 6.48009 17.7535 8.0403 17.7535 9.60051V9.81571L17.8105 9.83185C17.8573 9.77805 17.9003 9.72048 17.9504 9.67045C18.5163 9.10232 19.0802 8.52935 19.6505 7.96929C20.5591 7.08158 21.8772 7.16228 22.6192 8.17911C22.8058 8.43412 22.872 8.77629 22.9958 9.07811V9.50851C22.8978 10.1283 22.525 10.5732 22.0941 10.9988C20.6899 12.3874 19.3002 13.791 17.9014 15.1844C17.8521 15.2289 17.8132 15.2837 17.7875 15.3448C17.7617 15.406 17.7497 15.4721 17.7524 15.5384C17.757 17.3494 17.7581 19.1606 17.7556 20.9723C17.7556 21.6507 17.5216 22.2323 16.9486 22.6153C16.6818 22.7956 16.346 22.8752 16.0367 23.0011ZM12.601 2.29174H3.07837C2.52907 2.29174 2.29073 2.52739 2.29073 3.07185V20.94C2.29073 21.4715 2.53229 21.712 3.06545 21.712H15.6908C16.2245 21.712 16.466 21.4721 16.466 20.9411C16.466 19.581 16.466 18.2209 16.466 16.8609C16.466 16.8006 16.4606 16.7398 16.4579 16.6871C16.3057 16.7619 16.1723 16.8485 16.0275 16.8953C15.1953 17.1783 14.3597 17.4484 13.5274 17.7324C13.2402 17.8309 12.9744 17.8368 12.7495 17.6141C12.5246 17.3913 12.5273 17.1256 12.6258 16.8377C12.9077 16.013 13.1724 15.1817 13.4607 14.3591C13.5243 14.1784 13.6257 14.0133 13.7583 13.8749C14.6051 13.0114 15.4626 12.1576 16.3218 11.306C16.3711 11.2614 16.4099 11.2065 16.4355 11.1453C16.461 11.084 16.4728 11.0178 16.4698 10.9514C16.4644 9.43373 16.4666 7.91602 16.4666 6.39832V6.15729H16.2056C15.2464 6.15729 14.2871 6.15729 13.3279 6.15729C12.8549 6.15729 12.6015 5.90067 12.6005 5.42507C12.6005 4.58041 12.6005 3.73574 12.6005 2.89108L12.601 2.29174ZM19.9049 11.3302L19.0361 10.4656C18.0192 11.4792 16.9916 12.502 15.9824 13.5075C16.2686 13.7948 16.5645 14.0907 16.848 14.3747L19.9049 11.3302ZM13.8981 4.85371H16.459C16.4732 4.75145 16.4629 4.64728 16.4291 4.54975C16.3952 4.45221 16.3387 4.36408 16.2643 4.29258C15.6646 3.6893 15.0627 3.08853 14.4587 2.49027C14.3889 2.41411 14.3007 2.35718 14.2025 2.32496C14.1043 2.29274 13.9995 2.2863 13.8981 2.30627V4.85371ZM20.869 10.3763C21.088 10.1611 21.3231 9.95236 21.534 9.72102C21.644 9.60034 21.7035 9.44206 21.7002 9.2788C21.697 9.11554 21.6312 8.95976 21.5165 8.84357C21.4017 8.72738 21.2468 8.65965 21.0836 8.65434C20.9204 8.64903 20.7614 8.70654 20.6393 8.81503C20.4031 9.03023 20.1885 9.26856 19.9765 9.48376C20.2735 9.77966 20.5688 10.0761 20.869 10.3763ZM14.2328 16.0964L14.2726 16.1394C14.8106 15.8548 15.51 15.9059 15.8925 15.3733C15.5815 15.0628 15.2862 14.768 14.9779 14.4587C14.8832 14.5663 14.7283 14.6771 14.6686 14.8251C14.5018 15.2415 14.3748 15.6719 14.2328 16.0964Z" fill="#FF293E"/>
<path d="M8.71246 8.73627C7.23797 8.73627 5.76331 8.73627 4.28847 8.73627C3.78597 8.73627 3.46263 8.31878 3.62027 7.88246C3.71496 7.62153 3.90917 7.48165 4.18248 7.45206C4.2541 7.44702 4.32593 7.44576 4.39768 7.44829H13.074C13.5895 7.44829 13.8886 7.68609 13.888 8.0939C13.8875 8.5017 13.5889 8.7395 13.0724 8.7395L8.71246 8.73627Z" fill="#FF293E"/>
<path d="M7.45266 10.0254C8.51198 10.0254 9.57185 10.0216 10.6312 10.0254C11.1331 10.028 11.4532 10.4902 11.2579 10.9227C11.1369 11.1917 10.9142 11.3133 10.6215 11.3128H8.70782C7.23261 11.3128 5.75777 11.3128 4.28328 11.3128C3.7738 11.3128 3.45153 10.8738 3.62584 10.4342C3.73022 10.1712 3.9621 10.0259 4.29297 10.0254C5.34674 10.0243 6.39996 10.0243 7.45266 10.0254Z" fill="#FF293E"/>
<path d="M7.42381 13.8919H4.26682C3.97307 13.8919 3.75625 13.7644 3.63305 13.497C3.58224 13.3813 3.56754 13.253 3.59086 13.1288C3.61419 13.0046 3.67446 12.8903 3.76378 12.8009C3.91981 12.6395 4.11618 12.6013 4.33299 12.6018C5.87921 12.6043 7.42561 12.6043 8.97219 12.6018C9.51019 12.6018 10.0482 12.6018 10.583 12.6018C11.0204 12.6018 11.3109 12.8633 11.3103 13.2474C11.3098 13.6315 11.0193 13.8898 10.5808 13.8903C9.52848 13.8925 8.47615 13.893 7.42381 13.8919Z" fill="#FF293E"/>
<path d="M7.4533 15.1811C8.51262 15.1811 9.57249 15.1774 10.6318 15.1811C11.1332 15.1811 11.4533 15.6465 11.257 16.0796C11.1354 16.3486 10.9121 16.4686 10.6194 16.468H8.5363C7.11866 16.468 5.70102 16.468 4.28608 16.468C3.77713 16.468 3.45486 16.0274 3.63025 15.5884C3.73516 15.3258 3.96704 15.1811 4.29845 15.1806C5.34935 15.1802 6.40096 15.1804 7.4533 15.1811Z" fill="#FF293E"/>
<path d="M11.3123 20.4228C10.6963 20.4228 10.0808 20.4228 9.46532 20.4228C9.02792 20.4228 8.73633 20.1619 8.73633 19.7772C8.73633 19.3925 9.02793 19.1316 9.46586 19.1316C10.6972 19.1316 11.9285 19.1316 13.1598 19.1316C13.5977 19.1316 13.8888 19.3925 13.8882 19.7772C13.8877 20.1619 13.5977 20.4196 13.1592 20.4228C12.5438 20.4244 11.9278 20.4228 11.3123 20.4228Z" fill="#FF293E"/>
</svg>
