<svg width="650" height="673" viewBox="0 0 650 673" fill="none" xmlns="http://www.w3.org/2000/svg">
<path fill-rule="evenodd" clip-rule="evenodd" d="M556.227 308.836L418.297 379.005L342.334 375.463L278.374 392.076L107.641 355.911L170.864 338.2L107.857 299.698L245.441 228.856L307.667 266.012L353.861 218.3L533.001 257.511L485.031 305.577L556.227 308.836ZM312.001 282.873L213.851 332.462L343.201 361.295L451.534 308.695L312.001 282.873ZM202.844 392.855L203.407 468.054L353.427 499.154L351.911 393.741L420.724 399.054L491.661 364.624L494.954 459.163L366.557 531.316L171.557 488.138L173.291 385.7L202.844 392.855Z" fill="#FF293E"/>
</svg>
