<svg width="350" height="278" viewBox="0 0 350 278" fill="none" xmlns="http://www.w3.org/2000/svg">
<path fill-rule="evenodd" clip-rule="evenodd" d="M180.915 277.642C-65.2049 277.642 -54.0449 0 176.915 0C407.155 0 405.715 277.642 180.915 277.642ZM176.675 19.8C-21.4449 19.8 -30.9649 257.874 180.035 257.874C372.795 257.779 374.035 19.8 176.675 19.8ZM303.435 152.905L260.555 159.221L256.555 134.905H303.395L303.435 152.905ZM161.555 167.684L104.955 120.032L116.955 108.537L174.435 133.263L273.915 71.4632L282.395 80.3684L187.915 165.284L161.555 167.684ZM175.515 43.2632L201.475 41.6211L203.395 79.5158L176.875 78.5053L175.515 43.2632ZM144.475 43.2632H160.875L164.875 79.6737L140.555 76.5158L144.475 43.2632ZM46.7951 141.126L92.9551 134.811L96.9551 159.537H50.7951L46.7951 141.126ZM194.155 237.505L170.875 242.621L162.875 206.621L194.115 204.632L194.155 237.505Z" fill="#FF293E"/>
</svg>
